<?xml version="1.0" encoding="utf-8"?>
<!-- Generator: Adobe Illustrator 21.0.0, SVG Export Plug-In . SVG Version: 6.00 Build 0)  -->
<svg version="1.1" id="Layer_1" xmlns="http://www.w3.org/2000/svg" xmlns:xlink="http://www.w3.org/1999/xlink" x="0px" y="0px"
	 viewBox="0 0 10 10" style="enable-background:new 0 0 10 10;" xml:space="preserve">
<style type="text/css">
	.st0{fill:#335473;}
</style>
<g transform="translate(1 1)">
	<path class="st0" d="M5.7,7.9H2.3c-0.1,0-0.1-0.1-0.1-0.1V0.5c0-0.1,0.1-0.1,0.1-0.1h3.5c0.1,0,0.1,0.1,0.1,0.1v7.2
		C5.9,7.8,5.8,7.9,5.7,7.9z M2.4,7.6h3.2v-7H2.4V7.6z"/>
	<path class="st0" d="M2.3,6.8H0.1C0,6.8,0,6.8,0,6.7V1.9C0,1.8,0,1.7,0.1,1.7h2.1c0.1,0,0.1,0.1,0.1,0.1v4.8
		C2.4,6.8,2.3,6.8,2.3,6.8z M0.2,6.5h1.9V2H0.2V6.5z"/>
	<path class="st0" d="M5.1,7.9H2.9c-0.1,0-0.1-0.1-0.1-0.1V6.4c0-0.1,0.1-0.1,0.1-0.1h2.1c0.1,0,0.1,0.1,0.1,0.1v1.3
		C5.2,7.8,5.2,7.9,5.1,7.9z M3.1,7.6h1.9V6.5H3.1V7.6z"/>
	<path class="st0" d="M4,7.9c-0.1,0-0.1-0.1-0.1-0.1V6.4c0-0.1,0.1-0.1,0.1-0.1c0.1,0,0.1,0.1,0.1,0.1v1.3C4.1,7.8,4.1,7.9,4,7.9z"
		/>
	<path class="st0" d="M2.3,7.9H0.1C0,7.9,0,7.8,0,7.8V6.7C0,6.6,0,6.5,0.1,6.5h2.1c0.1,0,0.1,0.1,0.1,0.1v1.1
		C2.4,7.8,2.3,7.9,2.3,7.9z M0.2,7.6h1.9V6.8H0.2V7.6z"/>
	<path class="st0" d="M7.9,6.8H5.7c-0.1,0-0.1-0.1-0.1-0.1V1.9c0-0.1,0.1-0.1,0.1-0.1h2.1C8,1.7,8,1.8,8,1.9v4.8
		C8,6.8,8,6.8,7.9,6.8z M5.9,6.5h1.9V2H5.9V6.5z"/>
	<path class="st0" d="M7.9,7.9H5.7c-0.1,0-0.1-0.1-0.1-0.1V6.7c0-0.1,0.1-0.1,0.1-0.1h2.1C8,6.5,8,6.6,8,6.7v1.1
		C8,7.8,8,7.9,7.9,7.9z M5.9,7.6h1.9V6.8H5.9V7.6z"/>
	<path class="st0" d="M0.6,2C0.6,2,0.5,1.9,0.5,1.9V1.6c0-0.1,0.1-0.1,0.1-0.1s0.1,0.1,0.1,0.1v0.3C0.8,1.9,0.7,2,0.6,2z"/>
	<path class="st0" d="M1.5,2C1.4,2,1.3,1.9,1.3,1.9V1.6c0-0.1,0.1-0.1,0.1-0.1s0.1,0.1,0.1,0.1v0.3C1.6,1.9,1.5,2,1.5,2z"/>
	<path class="st0" d="M3.6,0.6c-0.1,0-0.1-0.1-0.1-0.1V0.2c0-0.1,0.1-0.1,0.1-0.1s0.1,0.1,0.1,0.1v0.3C3.7,0.6,3.7,0.6,3.6,0.6z"/>
	<path class="st0" d="M4.4,0.6c-0.1,0-0.1-0.1-0.1-0.1V0.2c0-0.1,0.1-0.1,0.1-0.1c0.1,0,0.1,0.1,0.1,0.1v0.3
		C4.5,0.6,4.5,0.6,4.4,0.6z"/>
	<path class="st0" d="M6.5,2C6.5,2,6.4,1.9,6.4,1.9V1.6c0-0.1,0.1-0.1,0.1-0.1c0.1,0,0.1,0.1,0.1,0.1v0.3C6.7,1.9,6.6,2,6.5,2z"/>
	<path class="st0" d="M7.4,2C7.3,2,7.2,1.9,7.2,1.9V1.6c0-0.1,0.1-0.1,0.1-0.1s0.1,0.1,0.1,0.1v0.3C7.5,1.9,7.4,2,7.4,2z"/>
	<path class="st0" d="M3.5,2.1H3.2C3,2.1,2.9,2,2.9,1.9V1.6c0-0.1,0.1-0.3,0.3-0.3h0.3c0.1,0,0.3,0.1,0.3,0.3v0.3
		C3.7,2,3.6,2.1,3.5,2.1z M3.2,1.6v0.3h0.3V1.6H3.2z"/>
	<path class="st0" d="M4.8,2.1H4.5C4.4,2.1,4.3,2,4.3,1.9V1.6c0-0.1,0.1-0.3,0.3-0.3h0.3c0.1,0,0.3,0.1,0.3,0.3v0.3
		C5.1,2,5,2.1,4.8,2.1z M4.5,1.6v0.3h0.3V1.6H4.5z"/>
	<path class="st0" d="M3.5,3.2H3.2C3,3.2,2.9,3.1,2.9,2.9V2.7c0-0.1,0.1-0.3,0.3-0.3h0.3c0.1,0,0.3,0.1,0.3,0.3v0.3
		C3.7,3.1,3.6,3.2,3.5,3.2z M3.2,2.7v0.3h0.3V2.7H3.2z"/>
	<path class="st0" d="M4.8,3.2H4.5c-0.1,0-0.3-0.1-0.3-0.3V2.7c0-0.1,0.1-0.3,0.3-0.3h0.3c0.1,0,0.3,0.1,0.3,0.3v0.3
		C5.1,3.1,5,3.2,4.8,3.2z M4.5,2.7v0.3h0.3V2.7H4.5z"/>
	<path class="st0" d="M3.5,4.3H3.2C3,4.3,2.9,4.1,2.9,4V3.7c0-0.1,0.1-0.3,0.3-0.3h0.3c0.1,0,0.3,0.1,0.3,0.3V4
		C3.7,4.1,3.6,4.3,3.5,4.3z M3.2,3.7V4h0.3V3.7H3.2z"/>
	<path class="st0" d="M4.8,4.3H4.5C4.4,4.3,4.3,4.1,4.3,4V3.7c0-0.1,0.1-0.3,0.3-0.3h0.3c0.1,0,0.3,0.1,0.3,0.3V4
		C5.1,4.1,5,4.3,4.8,4.3z M4.5,3.7V4h0.3V3.7H4.5z"/>
	<path class="st0" d="M3.5,5.3H3.2C3,5.3,2.9,5.2,2.9,5.1V4.8c0-0.1,0.1-0.3,0.3-0.3h0.3c0.1,0,0.3,0.1,0.3,0.3v0.3
		C3.7,5.2,3.6,5.3,3.5,5.3z M3.2,4.8v0.3h0.3V4.8H3.2z"/>
	<path class="st0" d="M4.8,5.3H4.5c-0.1,0-0.3-0.1-0.3-0.3V4.8c0-0.1,0.1-0.3,0.3-0.3h0.3c0.1,0,0.3,0.1,0.3,0.3v0.3
		C5.1,5.2,5,5.3,4.8,5.3z M4.5,4.8v0.3h0.3V4.8H4.5z"/>
	<path class="st0" d="M6.9,3.1H6.7c-0.1,0-0.3-0.1-0.3-0.3V2.5c0-0.1,0.1-0.3,0.3-0.3h0.3c0.1,0,0.3,0.1,0.3,0.3v0.3
		C7.2,2.9,7.1,3.1,6.9,3.1z M6.7,2.5v0.3h0.3V2.5H6.7z"/>
	<path class="st0" d="M6.9,4.1H6.7C6.5,4.1,6.4,4,6.4,3.9V3.6c0-0.1,0.1-0.3,0.3-0.3h0.3c0.1,0,0.3,0.1,0.3,0.3v0.3
		C7.2,4,7.1,4.1,6.9,4.1z M6.7,3.6v0.3h0.3V3.6H6.7z"/>
	<path class="st0" d="M6.9,5.2H6.7c-0.1,0-0.3-0.1-0.3-0.3V4.7c0-0.1,0.1-0.3,0.3-0.3h0.3c0.1,0,0.3,0.1,0.3,0.3v0.3
		C7.2,5.1,7.1,5.2,6.9,5.2z M6.7,4.7v0.3h0.3V4.7H6.7z"/>
	<path class="st0" d="M6.9,6.3H6.7C6.5,6.3,6.4,6.2,6.4,6V5.7c0-0.1,0.1-0.3,0.3-0.3h0.3c0.1,0,0.3,0.1,0.3,0.3V6
		C7.2,6.2,7.1,6.3,6.9,6.3z M6.7,5.7V6h0.3V5.7H6.7z"/>
	<path class="st0" d="M1.3,3.1H1.1c-0.1,0-0.3-0.1-0.3-0.3V2.5c0-0.1,0.1-0.3,0.3-0.3h0.3c0.1,0,0.3,0.1,0.3,0.3v0.3
		C1.6,2.9,1.5,3.1,1.3,3.1z M1.1,2.5v0.3h0.3V2.5H1.1z"/>
	<path class="st0" d="M1.3,4.1H1.1C0.9,4.1,0.8,4,0.8,3.9V3.6c0-0.1,0.1-0.3,0.3-0.3h0.3c0.1,0,0.3,0.1,0.3,0.3v0.3
		C1.6,4,1.5,4.1,1.3,4.1z M1.1,3.6v0.3h0.3V3.6H1.1z"/>
	<path class="st0" d="M1.3,5.2H1.1c-0.1,0-0.3-0.1-0.3-0.3V4.7c0-0.1,0.1-0.3,0.3-0.3h0.3c0.1,0,0.3,0.1,0.3,0.3v0.3
		C1.6,5.1,1.5,5.2,1.3,5.2z M1.1,4.7v0.3h0.3V4.7H1.1z"/>
	<path class="st0" d="M1.3,6.3H1.1C0.9,6.3,0.8,6.2,0.8,6V5.7c0-0.1,0.1-0.3,0.3-0.3h0.3c0.1,0,0.3,0.1,0.3,0.3V6
		C1.6,6.2,1.5,6.3,1.3,6.3z M1.1,5.7V6h0.3V5.7H1.1z"/>
</g>
</svg>
