<?xml version="1.0" encoding="utf-8"?>
<!-- Generator: Adobe Illustrator 21.0.0, SVG Export Plug-In . SVG Version: 6.00 Build 0)  -->
<svg version="1.1" id="Layer_1" xmlns="http://www.w3.org/2000/svg" xmlns:xlink="http://www.w3.org/1999/xlink" x="0px" y="0px"
	 viewBox="0 0 10 10" style="enable-background:new 0 0 10 10;" xml:space="preserve">
<style type="text/css">
	.st0{fill:#335473;}
</style>
<g>
	<g>
		<path class="st0" d="M8,4.9C7.9,4.9,7.8,5,7.8,5.2v3.5H5.9V7.3C5.9,7.1,5.8,7,5.7,7H4.3C4.2,7,4.1,7.1,4.1,7.3v1.4H2.2V5.3
			C2.2,5.2,2.1,5,2,5C1.8,5,1.7,5.2,1.7,5.3V9c0,0.1,0.1,0.3,0.2,0.3h2.4c0.1,0,0.2-0.1,0.2-0.3V7.5h0.8V9c0,0.1,0.1,0.3,0.3,0.3H8
			c0.1,0,0.3-0.1,0.3-0.3V5.2C8.3,5,8.2,4.9,8,4.9L8,4.9z M8,4.9"/>
		<path class="st0" d="M9.4,5.1l-2-2.1V1.7c0-0.1-0.1-0.3-0.3-0.3C7,1.4,6.9,1.5,6.9,1.7v0.9L5.2,0.8C5.1,0.8,5.1,0.8,5,0.8
			c-0.1,0-0.1,0-0.2,0.1L0.6,5.1c-0.1,0.1-0.1,0.3,0,0.4c0.1,0.1,0.3,0.1,0.4,0L5,1.4l4.1,4.1c0,0,0.1,0.1,0.2,0.1
			c0.1,0,0.1,0,0.2-0.1C9.5,5.4,9.5,5.2,9.4,5.1L9.4,5.1z M9.4,5.1"/>
	</g>
</g>
</svg>
