<?xml version="1.0" encoding="utf-8"?>
<!-- Generator: Adobe Illustrator 21.0.0, SVG Export Plug-In . SVG Version: 6.00 Build 0)  -->
<svg version="1.1" id="Layer_1" xmlns="http://www.w3.org/2000/svg" xmlns:xlink="http://www.w3.org/1999/xlink" x="0px" y="0px"
	 viewBox="0 0 10 10" style="enable-background:new 0 0 10 10;" xml:space="preserve">
<style type="text/css">
	.st0{fill:#335473;}
</style>
<g>
	<path class="st0" d="M6.6,1.9c0.1,0,0.2-0.1,0.2-0.2c0-0.1-0.1-0.2-0.2-0.2S6.4,1.6,6.4,1.7C6.4,1.8,6.5,1.9,6.6,1.9z"/>
	<path class="st0" d="M3.4,1.9c0.1,0,0.2-0.1,0.2-0.2c0-0.1-0.1-0.2-0.2-0.2S3.2,1.6,3.2,1.7C3.2,1.8,3.3,1.9,3.4,1.9z"/>
	<path class="st0" d="M2.1,6.1h5.7C8,6.1,8.1,6,8.1,5.9V2.5c0-0.1-0.1-0.2-0.2-0.2H2.1C2,2.3,1.9,2.4,1.9,2.5v3.4
		C1.9,6,2,6.1,2.1,6.1z M7.7,5.7H5.2v-3h2.5V5.7z M2.3,2.7h2.5v3H2.3L2.3,2.7z"/>
	<path class="st0" d="M4.2,1.9h1.6C5.9,1.9,6,1.8,6,1.7c0-0.1-0.1-0.2-0.2-0.2H4.2C4.1,1.5,4,1.6,4,1.7C4,1.8,4.1,1.9,4.2,1.9z"/>
	<path class="st0" d="M7.2,6.7c-0.5,0-0.8,0.4-0.8,0.8c0,0.5,0.4,0.8,0.8,0.8S8.1,8,8.1,7.5C8.1,7.1,7.7,6.7,7.2,6.7z M7.2,7.9
		C7,7.9,6.8,7.7,6.8,7.5S7,7.1,7.2,7.1s0.4,0.2,0.4,0.4S7.5,7.9,7.2,7.9z"/>
	<path class="st0" d="M2.8,8.3c0.5,0,0.8-0.4,0.8-0.8c0-0.5-0.4-0.8-0.8-0.8S1.9,7.1,1.9,7.5C1.9,8,2.3,8.3,2.8,8.3z M2.8,7.1
		c0.2,0,0.4,0.2,0.4,0.4S3,7.9,2.8,7.9S2.3,7.7,2.3,7.5S2.5,7.1,2.8,7.1z"/>
	<path class="st0" d="M5.8,6.9H4.2C4.1,6.9,4,7,4,7.1s0.1,0.2,0.2,0.2h1.6C5.9,7.3,6,7.2,6,7.1S5.9,6.9,5.8,6.9z"/>
	<path class="st0" d="M5.8,7.7H4.2C4.1,7.7,4,7.8,4,7.9C4,8,4.1,8.1,4.2,8.1h1.6C5.9,8.1,6,8,6,7.9C6,7.8,5.9,7.7,5.8,7.7z"/>
	<path class="st0" d="M2.1,9.4L2.1,9.4l0.6,0h0.5h0.5h2.6h0.5h0.5h0.6l0,0c0.5,0,1-0.5,1-1V2.3c0-0.3-0.1-0.7-0.3-0.9
		C8.4,1.1,8.1,0.9,7.7,0.9C7,0.7,6.3,0.6,5.5,0.6H4.4C3.7,0.6,3,0.7,2.3,0.9C1.6,1,1.1,1.6,1.1,2.3v6.1C1.1,8.9,1.6,9.3,2.1,9.4z
		 M1.5,2.3c0-0.5,0.3-0.9,0.8-1C3,1.1,3.7,1.1,4.4,1.1h1.1c0.7,0,1.4,0.1,2.1,0.2c0.2,0,0.4,0.2,0.6,0.4C8.4,1.8,8.5,2,8.5,2.3v6.1
		c0,0.3-0.3,0.6-0.6,0.6H2.1c-0.3,0-0.6-0.3-0.6-0.6V2.3z"/>
</g>
</svg>
