<?xml version="1.0" encoding="utf-8"?>
<!-- Generator: Adobe Illustrator 21.0.0, SVG Export Plug-In . SVG Version: 6.00 Build 0)  -->
<svg version="1.1" id="Layer_1" xmlns="http://www.w3.org/2000/svg" xmlns:xlink="http://www.w3.org/1999/xlink" x="0px" y="0px"
	 viewBox="0 0 10 10" style="enable-background:new 0 0 10 10;" xml:space="preserve">
<style type="text/css">
	.st0{fill:#335473;}
</style>
<g>
	<g>
		<path class="st0" d="M5,0.7C4.7,0.7,4.5,0.8,4.3,1C4,1.3,3.9,1.5,3.9,1.8L4,3.4L0.6,5.3l0,1c0,0.1,0,0.2,0.1,0.3
			C0.8,6.7,0.9,6.7,1,6.7l0,0l3.1-0.9l0.1,1.4c0,0.1,0,0.2,0,0.3L3.1,8.2l0,0.7c0,0.2,0.2,0.4,0.4,0.4l0,0l1.5-0.5l0.1,0l1.5,0.5h0
			c0.1,0,0.2,0,0.3-0.1C6.9,9.1,6.9,9,6.9,8.9l0-0.7L5.8,7.6c0-0.1,0-0.2,0-0.3l0.1-1.5L9,6.7l0,0l0,0c0.1,0,0.2,0,0.3-0.1
			c0.1-0.1,0.1-0.2,0.1-0.3l0-1L6,3.4L6,1.8c0-0.3-0.1-0.6-0.3-0.8C5.5,0.9,5.3,0.7,5,0.7L5,0.7z M5.6,1.8L5.5,3.7L9,5.5l0,0.7
			l-3.5-1l-0.1,2l0,0c0,0.1,0,0.2-0.1,0.3L5.3,7.8l1.2,0.7l0,0.3L5.1,8.3H4.9L3.5,8.8l0-0.3l1.2-0.7L4.6,7.6c0-0.1-0.1-0.2-0.1-0.3
			L4.5,5.2L1,6.2l0-0.7l3.4-1.8L4.4,1.8c0-0.2,0.1-0.3,0.2-0.5C4.7,1.3,4.8,1.2,5,1.2c0.2,0,0.3,0.1,0.4,0.2
			C5.5,1.5,5.6,1.7,5.6,1.8L5.6,1.8z M5.6,1.8"/>
	</g>
</g>
</svg>
