<?xml version="1.0" encoding="utf-8"?>
<!-- Generator: Adobe Illustrator 22.0.0, SVG Export Plug-In . SVG Version: 6.00 Build 0)  -->
<svg version="1.1" id="Layer_1" xmlns="http://www.w3.org/2000/svg" xmlns:xlink="http://www.w3.org/1999/xlink" x="0px" y="0px"
	 viewBox="0 0 282.7 150.8" style="enable-background:new 0 0 282.7 150.8;" xml:space="preserve">
<style type="text/css">
	.st0{fill:#FFFFFF;}
	.st1{fill:#B9723A;}
</style>
<g id="Layer_1_1_">
	<rect x="1" y="-0.7" class="st0" width="282.7" height="150.8"/>
</g>
<g id="Layer_2_1_">
</g>
<g id="Layer_3">
</g>
<g id="Layer_4">
</g>
<g>
	<g>
		<g>
			<path class="st1" d="M123.2,96v-2.2c0-0.7,0.6-1.3,1.3-1.3h28.8c-0.7-0.6-1.4-1.1-2-1.6c-0.5-0.3-0.9-0.7-1.3-1h-25.6
				c-2.1,0-3.9,1.7-3.9,3.9v20.8c0,2.1,1.7,3.9,3.9,3.9h33.8c2.1,0,3.9-1.8,3.9-3.9v-13.9c-1.9-1.5-3.8-3.3-5.2-4.7H123.2z
				 M159.5,114.6c0,0.7-0.6,1.3-1.3,1.3h-33.8c-0.7,0-1.3-0.6-1.3-1.3v-10.9h36.4V114.6z M159.5,114.6"/>
			<path class="st1" d="M125.8,96c-1.4,1.4-3.3,3.2-5.2,4.7v13.9c0,2.1,1.7,3.9,3.9,3.9h33.8c2.1,0,3.9-1.8,3.9-3.9V93.8
				c0-2.1-1.7-3.9-3.9-3.9h-25.6c-0.4,0.3-0.8,0.7-1.3,1c-0.6,0.5-1.3,1-2,1.6h28.8c0.7,0,1.3,0.6,1.3,1.3V96H125.8z M123.2,103.7
				h36.4v10.9c0,0.7-0.6,1.3-1.3,1.3h-33.8c-0.7,0-1.3-0.6-1.3-1.3V103.7z M123.2,114.6"/>
			<rect x="125.2" y="110.6" class="st1" width="12" height="3.2"/>
		</g>
	</g>
	<path class="st1" d="M108.7,64.3c-0.8,0-1.6-0.3-2.3-0.8c-1.6-1.3-1.9-3.6-0.6-5.2c0.8-1,4.3-4.7,10-8.4c7.3-4.8,15.2-7.6,22.9-8.1
		c13.3-0.9,26,4.5,38,16.1c1.5,1.4,1.5,3.8,0.1,5.3c-1.4,1.5-3.8,1.5-5.3,0.1c-10.3-10-21.1-14.7-32-14.1c-8.2,0.5-15.1,4-19.4,6.8
		c-4.8,3.1-7.9,6.3-8.4,6.9C110.9,63.8,109.8,64.3,108.7,64.3z M120.1,72.3c0.9-1,8.7-9.6,19.9-10.1c7.6-0.4,15.4,3.1,22.9,10.3
		c1.5,1.4,3.8,1.4,5.2-0.1c1.4-1.5,1.4-3.8-0.1-5.2c-9.1-8.7-18.6-12.8-28.4-12.4c-14,0.6-23.4,10.6-25.1,12.6
		c-1.3,1.5-1.2,3.9,0.4,5.2c0.7,0.6,1.6,0.9,2.4,0.9C118.3,73.6,119.3,73.2,120.1,72.3z M128.9,81.8c0.7-1.2,5.1-5.6,10.8-6.3
		c4.9-0.5,9.8,1.8,14.6,6.9c1.4,1.5,3.8,1.6,5.2,0.2c1.5-1.4,1.6-3.8,0.2-5.2c-8-8.6-15.7-9.7-20.8-9.2c-8.5,0.9-14.7,7-16.4,9.8
		c-1.1,1.8-0.5,4,1.3,5.1c0.6,0.4,1.3,0.5,1.9,0.5C127,83.6,128.2,83,128.9,81.8z M148.6,89.9c0-3.9-3.2-7.1-7.1-7.1
		c-3.9,0-7.1,3.2-7.1,7.1"/>
</g>
</svg>
