<?xml version="1.0" encoding="utf-8"?>
<!-- Generator: Adobe Illustrator 21.0.0, SVG Export Plug-In . SVG Version: 6.00 Build 0)  -->
<svg version="1.1" id="Layer_1" xmlns="http://www.w3.org/2000/svg" xmlns:xlink="http://www.w3.org/1999/xlink" x="0px" y="0px"
	 viewBox="0 0 22.3 22.3" style="enable-background:new 0 0 22.3 22.3;" xml:space="preserve">
<style type="text/css">
	.st0{fill-rule:evenodd;clip-rule:evenodd;fill:#FFFFFF;}
	.st1{fill:#FFFFFF;}
</style>
<g>
	<path class="st1" d="M11.1,0C5,0,0,5,0,11.1c0,6.2,5,11.1,11.1,11.1c6.2,0,11.1-5,11.1-11.1C22.3,5,17.3,0,11.1,0L11.1,0z M14,11.1
		h-1.8v6.7H9.7v-6.7H8V8.8l1.7,0l0-1.4c0-1.9,0.5-3,2.7-3h1.8v2.3h-1.2c-0.9,0-0.9,0.3-0.9,0.9v1.1h2.1L14,11.1z M14,11.1"/>
</g>
</svg>
