<?xml version="1.0" encoding="utf-8"?>
<!-- Generator: Adobe Illustrator 21.0.0, SVG Export Plug-In . SVG Version: 6.00 Build 0)  -->
<svg version="1.1" id="Layer_1" xmlns="http://www.w3.org/2000/svg" xmlns:xlink="http://www.w3.org/1999/xlink" x="0px" y="0px"
	 viewBox="0 0 22.3 22.3" style="enable-background:new 0 0 22.3 22.3;" xml:space="preserve">
<style type="text/css">
	.st0{fill-rule:evenodd;clip-rule:evenodd;fill:#FFFFFF;}
	.st1{fill:#FFFFFF;}
</style>
<g>
	<path class="st1" d="M11.1,13.4c1.2,0,2.2-1,2.2-2.2c0-0.5-0.2-0.9-0.4-1.3c-0.4-0.6-1.1-0.9-1.8-0.9c-0.7,0-1.4,0.4-1.8,0.9
		c-0.3,0.4-0.4,0.8-0.4,1.3C8.9,12.4,9.9,13.4,11.1,13.4L11.1,13.4z M11.1,13.4"/>
	<path class="st1" d="M16,8.4V6.3h-0.3l-1.9,0l0,2.1L16,8.4z M16,8.4"/>
	<path class="st1" d="M11.1,0C5,0,0,5,0,11.1c0,6.1,5,11.1,11.1,11.1c6.1,0,11.1-5,11.1-11.1C22.3,5,17.3,0,11.1,0L11.1,0z
		 M17.5,9.8V15c0,1.4-1.1,2.4-2.4,2.4H7.3c-1.4,0-2.4-1.1-2.4-2.4V7.3c0-1.4,1.1-2.4,2.4-2.4H15c1.4,0,2.4,1.1,2.4,2.4V9.8z
		 M17.5,9.8"/>
	<path class="st1" d="M14.6,11.1c0,1.9-1.6,3.5-3.5,3.5c-1.9,0-3.5-1.6-3.5-3.5c0-0.5,0.1-0.9,0.3-1.3H6V15c0,0.7,0.5,1.2,1.2,1.2
		H15c0.7,0,1.2-0.5,1.2-1.2V9.8h-1.9C14.5,10.2,14.6,10.7,14.6,11.1L14.6,11.1z M14.6,11.1"/>
</g>
</svg>
