<?xml version="1.0" encoding="utf-8"?>
<!-- Generator: Adobe Illustrator 21.0.0, SVG Export Plug-In . SVG Version: 6.00 Build 0)  -->
<svg version="1.1" id="Layer_1" xmlns="http://www.w3.org/2000/svg" xmlns:xlink="http://www.w3.org/1999/xlink" x="0px" y="0px"
	 viewBox="0 0 22.3 22.3" style="enable-background:new 0 0 22.3 22.3;" xml:space="preserve">
<style type="text/css">
	.st0{fill-rule:evenodd;clip-rule:evenodd;fill:#FFFFFF;}
	.st1{fill:#FFFFFF;}
</style>
<g>
	<path class="st1" d="M11.1,0C5,0,0,5,0,11.1c0,6.2,5,11.1,11.1,11.1c6.2,0,11.1-5,11.1-11.1C22.3,5,17.3,0,11.1,0L11.1,0z
		 M16.7,8.6l0,0.4c0,3.6-2.8,7.8-7.8,7.8c-1.5,0-3-0.5-4.2-1.2c0.2,0,0.4,0,0.7,0c1.3,0,2.5-0.4,3.4-1.2c-1.2,0-2.2-0.8-2.6-1.9
		c0.2,0,0.3,0,0.5,0c0.3,0,0.5,0,0.7-0.1c-1.3-0.3-2.2-1.4-2.2-2.7v0C5.6,10,6,10.1,6.5,10.1C5.7,9.6,5.2,8.8,5.2,7.8
		c0-0.5,0.1-1,0.4-1.4C7,8.1,9,9.2,11.3,9.3c0-0.2-0.1-0.4-0.1-0.6c0-1.5,1.2-2.7,2.7-2.7c0.8,0,1.5,0.3,2,0.9
		c0.6-0.1,1.2-0.3,1.7-0.7c-0.2,0.6-0.6,1.2-1.2,1.5c0.6-0.1,1.1-0.2,1.6-0.4C17.7,7.8,17.2,8.3,16.7,8.6L16.7,8.6z M16.7,8.6"/>
</g>
</svg>
