<?xml version="1.0" encoding="utf-8"?>
<!-- Generator: Adobe Illustrator 21.0.0, SVG Export Plug-In . SVG Version: 6.00 Build 0)  -->
<svg version="1.1" id="Layer_1" xmlns="http://www.w3.org/2000/svg" xmlns:xlink="http://www.w3.org/1999/xlink" x="0px" y="0px"
	 viewBox="0 0 22.3 22.3" style="enable-background:new 0 0 22.3 22.3;" xml:space="preserve">
<style type="text/css">
	.st0{fill-rule:evenodd;clip-rule:evenodd;fill:#FFFFFF;}
	.st1{fill:#FFFFFF;}
</style>
<g>
	<path class="st0" d="M9.1,13.6c1.7-0.9,3.3-1.7,5-2.6c-1.7-0.9-3.3-1.7-5-2.6V13.6z M9.1,13.6"/>
	<path class="st0" d="M11.1,0C5,0,0,5,0,11.1c0,6.2,5,11.1,11.1,11.1c6.2,0,11.1-5,11.1-11.1C22.3,5,17.3,0,11.1,0L11.1,0z
		 M18.7,14.9c-0.2,0.8-0.9,1.5-1.7,1.5c-2,0.2-3.9,0.2-5.9,0.2c-2,0-3.9,0-5.9-0.2c-0.8-0.1-1.5-0.7-1.7-1.5
		c-0.3-1.2-0.3-2.5-0.3-3.7c0-1.2,0-2.5,0.3-3.7C3.7,6.6,4.4,6,5.3,5.9c2-0.2,3.9-0.2,5.9-0.2c2,0,3.9,0,5.9,0.2
		c0.8,0.1,1.5,0.7,1.7,1.5C19,8.6,19,9.9,19,11.1C19,12.4,19,13.7,18.7,14.9L18.7,14.9z M18.7,14.9"/>
</g>
</svg>
