<?xml version="1.0" encoding="utf-8"?>
<!-- Generator: Adobe Illustrator 22.0.0, SVG Export Plug-In . SVG Version: 6.00 Build 0)  -->
<svg version="1.1" id="Layer_1" xmlns="http://www.w3.org/2000/svg" xmlns:xlink="http://www.w3.org/1999/xlink" x="0px" y="0px"
	 viewBox="0 0 282.7 150.8" style="enable-background:new 0 0 282.7 150.8;" xml:space="preserve">
<style type="text/css">
	.st0{fill:#FFFFFF;}
	.st1{fill:#C2329E;}
</style>
<g id="Layer_1_1_">
	<rect x="1" y="-0.7" class="st0" width="282.7" height="150.8"/>
</g>
<g id="Layer_2_1_">
</g>
<g id="Layer_3">
</g>
<g id="Layer_4">
</g>
<g>
	<path class="st1" d="M126.5,59.1c-5.1,3.4-9.1,8.5-10.9,14.5c0,0.1,0,0.1-0.1,0.2c-0.2,0.8-0.4,1.5-0.6,2.3c0,0.1-0.1,0.2-0.1,0.3
		c-0.1,0.6-0.2,1.2-0.3,1.8l6-2.4c0.6-0.3,1-1,0.8-1.6c-0.5-1.4-0.1-2.9,0.9-4l3.7-3.7c0.8-0.8,1.2-1.8,1.2-2.9v-1.7
		C127.2,60.9,126.9,59.9,126.5,59.1z"/>
	<path class="st1" d="M167.7,84.8c-0.9,0.7-2,0.9-3.1,0.7c-1.1-0.2-2-0.9-2.6-1.8l-0.7-1.2l-1.8,8.3c0,4.2-1.1,7.1-3.1,8.8
		c-1.5,1.2-3.1,1.4-4,1.4c-0.3,0-0.6,0-0.7,0c-0.8,0-1.5-0.4-2.1-1c-1.6-1.8-1.8-5.7-1.7-8.1c-1.8-0.3-3.5-1.3-4.7-2.8
		c-1.1-1.3-2.8-2.5-3.7-3.1c-1-0.6-1.8-1.5-2.3-2.6l-1.5-3c-0.4-0.8-0.6-1.8-0.5-2.7c0.4-2.9,1.8-6.5,2.9-8.9
		c0.4-0.8,1.2-1.4,2.1-1.4c0.9-0.1,1.8,0.4,2.2,1.2l1.3,2.1c0.2,0.4,0.7,0.5,1,0.4c0.2,0,0.6-0.2,0.7-0.7l0-0.1
		c0.3-2.4,1.9-4.5,4.1-5.4l3-1.2c1.3-0.9,0.4-4.8-0.5-7c-3.2-1.4-6.8-2.1-10.6-2.1c-4.6,0-8.9,1.2-12.7,3.2c0.7,1.3,1.1,2.7,1.1,4.1
		v1.7c0,1.8-0.7,3.5-2,4.8l-3.7,3.7c-0.4,0.4-0.5,0.9-0.3,1.4c0.7,2-0.3,4.1-2.3,4.9l-7.2,2.8c0,0.2,0,0.4,0,0.6
		c0,1.9,0.2,3.8,0.6,5.7l4.8-1.8c1.1-0.4,2.4-0.3,3.3,0.4s1.6,1.8,1.6,3v1.9c0,1.7,1,3.3,2.6,4l4,1.7c1.2,0.5,2.3,1.3,3.3,2.2
		l0.8,0.8c2.3,2.3,3.1,5.6,2.2,8.6l-0.1,0.2c1.3,0.2,2.6,0.3,3.9,0.3c14,0,25.6-10.7,26.9-24.4L167.7,84.8z"/>
	<path class="st1" d="M133.4,101.4l-0.8-0.8c-0.7-0.7-1.6-1.3-2.5-1.7l-4-1.7c-2.6-1.1-4.2-3.6-4.2-6.4v-1.9c0-0.3-0.2-0.7-0.4-0.9
		c-0.3-0.2-0.6-0.2-1-0.1l-5.1,1.9c0.2,0.7,0.5,1.4,0.8,2.1c2.3,5.6,6.6,10.3,11.8,13.3c2.1,1.2,4.4,2.1,6.8,2.7l0.1-0.5
		C135.6,105.3,135,103,133.4,101.4z"/>
	<path class="st1" d="M168.3,79.1c0-0.2,0-0.4-0.1-0.6c-0.1-0.6-0.2-1.2-0.3-1.8c0-0.2-0.1-0.5-0.1-0.7c-0.1-0.7-0.3-1.3-0.5-2
		c-0.1-0.3-0.2-0.7-0.3-1c-0.1-0.4-0.3-0.8-0.4-1.1c-0.2-0.5-0.4-1-0.6-1.5c-0.2-0.4-0.4-0.8-0.6-1.2c-0.2-0.3-0.4-0.7-0.5-1
		c-0.2-0.4-0.4-0.8-0.7-1.1c-0.2-0.4-0.5-0.7-0.7-1.1c-0.3-0.4-0.6-0.9-1-1.3c-0.2-0.2-0.3-0.4-0.5-0.6c-0.5-0.5-0.9-1.1-1.5-1.6
		c-0.1-0.1-0.1-0.1-0.2-0.2c-0.5-0.5-1-1-1.6-1.4c-0.1-0.1-0.3-0.2-0.4-0.3c-0.6-0.5-1.2-1-1.9-1.4c0,0,0,0,0,0
		c-0.4-0.3-0.9-0.5-1.3-0.8c0.6,2.6,0.9,6.1-1.5,7.6c-0.1,0-0.1,0.1-0.2,0.1l-3.1,1.2c-1.4,0.6-2.4,1.8-2.5,3.3l0,0.2
		c-0.2,1.4-1.3,2.6-2.7,2.9c-1.5,0.3-2.9-0.3-3.7-1.6l-1.2-1.9c-0.9,1.9-2.3,5.3-2.6,8c0,0.4,0,0.8,0.2,1.2l1.5,3
		c0.3,0.6,0.8,1.2,1.4,1.6c1.3,0.8,3.1,2.1,4.3,3.6c1,1.2,2.4,1.9,3.9,1.9c0.4,0,0.8,0.2,1.1,0.5c0.3,0.3,0.4,0.7,0.4,1.1
		c-0.2,3.4,0.2,6.4,1,7.3c0.3,0.3,0.4,0.2,0.6,0.2c0,0,1.5,0.2,2.8-0.8c1.4-1.2,2.1-3.6,2.1-6.9c0-0.1,0-0.2,0-0.3l2.1-9.7
		c0.2-0.8,0.9-1.5,1.7-1.6c0.9-0.1,1.7,0.2,2.1,1l1.3,2.2c0.2,0.3,0.5,0.6,0.9,0.6c0.4,0.1,0.8,0,1.1-0.2l2.3-1.7
		C168.4,80.4,168.4,79.7,168.3,79.1z"/>
	<path class="st1" d="M141.4,41.7c-1.3,0-2.7,0.1-4,0.2c-0.7,0.1-1.2,0.7-1.2,1.4c0.1,0.7,0.6,1.2,1.3,1.2c0,0,0.1,0,0.1,0
		c1.2-0.1,2.5-0.2,3.7-0.2c0.7,0,1.3-0.6,1.3-1.3C142.6,42.3,142.1,41.7,141.4,41.7z"/>
	<path class="st1" d="M108.1,63.1c-0.6-0.3-1.4,0-1.7,0.6c-1.1,2.4-2,4.9-2.7,7.4c-0.2,0.7,0.3,1.4,0.9,1.6c0.1,0,0.2,0,0.3,0
		c0.6,0,1.1-0.4,1.3-1c0.6-2.4,1.4-4.7,2.5-6.9C109,64.2,108.8,63.4,108.1,63.1z"/>
	<path class="st1" d="M131.2,44.3c-0.2-0.7-0.9-1.1-1.6-0.8c-2.5,0.8-4.9,1.9-7.2,3.2c-0.6,0.3-0.8,1.1-0.5,1.8
		c0.2,0.4,0.7,0.7,1.1,0.7c0.2,0,0.4-0.1,0.6-0.2c2.1-1.2,4.4-2.2,6.8-2.9C131.1,45.7,131.4,45,131.2,44.3z"/>
	<path class="st1" d="M105.7,86.4c-0.3-2-0.5-4-0.5-6.1c0-0.4,0-0.9,0-1.3c0-0.7-0.5-1.3-1.2-1.3c-0.7,0-1.3,0.5-1.3,1.2
		c0,0.5,0,0.9,0,1.4c0,2.2,0.2,4.4,0.5,6.5c0.1,0.6,0.7,1.1,1.3,1.1c0.1,0,0.1,0,0.2,0C105.4,87.8,105.9,87.1,105.7,86.4z"/>
	<path class="st1" d="M121.4,110.5c-2-1.4-4-2.9-5.7-4.7c-0.5-0.5-1.3-0.5-1.8,0c-0.5,0.5-0.5,1.3,0,1.8c1.9,1.9,3.9,3.6,6.1,5
		c0.2,0.1,0.5,0.2,0.7,0.2c0.4,0,0.8-0.2,1.1-0.6C122.2,111.7,122,110.9,121.4,110.5z"/>
	<path class="st1" d="M151.3,116.5c-0.2-0.7-0.9-1.1-1.6-1c-2.4,0.6-4.8,0.9-7.3,1c-0.7,0-1.3,0.6-1.3,1.3c0,0.7,0.6,1.3,1.3,1.3
		c0,0,0,0,0,0c2.6-0.1,5.3-0.4,7.8-1C151,117.9,151.4,117.2,151.3,116.5z"/>
	<path class="st1" d="M135.1,115.9c-2.4-0.4-4.8-1.1-7.1-2c-0.7-0.3-1.4,0.1-1.7,0.7c-0.3,0.7,0.1,1.4,0.7,1.7c2.4,1,5,1.7,7.6,2.2
		c0.1,0,0.2,0,0.2,0c0.6,0,1.2-0.4,1.3-1.1C136.2,116.7,135.8,116.1,135.1,115.9z"/>
	<path class="st1" d="M111.1,100.1c-1.3-2.1-2.5-4.3-3.4-6.6c-0.3-0.7-1-1-1.7-0.7c-0.7,0.3-1,1-0.7,1.7c1,2.5,2.2,4.8,3.6,7
		c0.2,0.4,0.7,0.6,1.1,0.6c0.2,0,0.5-0.1,0.7-0.2C111.3,101.5,111.5,100.7,111.1,100.1z"/>
	<path class="st1" d="M117.7,51.3c-0.5-0.5-1.3-0.6-1.8-0.1c-2,1.7-3.8,3.7-5.4,5.8c-0.4,0.6-0.3,1.4,0.2,1.8
		c0.2,0.2,0.5,0.3,0.8,0.3c0.4,0,0.8-0.2,1-0.5c1.5-2,3.2-3.8,5-5.4C118.1,52.7,118.2,51.9,117.7,51.3z"/>
	<path class="st1" d="M161.8,111.7c-0.4-0.6-1.2-0.8-1.8-0.4c-1.1,0.6-2.2,1.2-3.3,1.8c-0.6,0.3-0.9,1.1-0.6,1.7
		c0.2,0.5,0.7,0.7,1.2,0.7c0.2,0,0.4,0,0.5-0.1c1.2-0.6,2.4-1.2,3.5-1.9C162,113.1,162.2,112.3,161.8,111.7z"/>
	<path class="st1" d="M179.8,98.9c-0.4-0.6-1.2-0.7-1.8-0.2l-4.4,3.4l-5.8-3.5c-0.6-0.4-1.4-0.2-1.8,0.4c-0.4,0.6-0.2,1.4,0.4,1.8
		l4.9,3l-4.5,3.5l-3.2-1.1c-0.7-0.2-1.4,0.1-1.6,0.8c-0.2,0.7,0.1,1.4,0.8,1.6l3,1v2.9c0,0.7,0.6,1.3,1.3,1.3s1.3-0.6,1.3-1.3v-3.2
		l4.6-3.6l1.9,4.7c0.2,0.5,0.7,0.8,1.2,0.8c0.2,0,0.3,0,0.5-0.1c0.7-0.3,1-1,0.7-1.7l-2.2-5.4l4.3-3.4
		C180.1,100.3,180.2,99.5,179.8,98.9z"/>
</g>
</svg>
